<svg id="visual" viewBox="0 0 900 600" width="900" height="600" xmlns="http://www.w3.org/2000/svg" xmlns:xlink="http://www.w3.org/1999/xlink" version="1.1"><rect x="0" y="0" width="900" height="600" fill="#002233"></rect><path d="M0 387L21.5 408.5C43 430 86 473 128.8 495.5C171.7 518 214.3 520 257.2 513.2C300 506.3 343 490.7 385.8 469.2C428.7 447.7 471.3 420.3 514.2 414.3C557 408.3 600 423.7 642.8 438C685.7 452.3 728.3 465.7 771.2 467.5C814 469.3 857 459.7 878.5 454.8L900 450L900 601L878.5 601C857 601 814 601 771.2 601C728.3 601 685.7 601 642.8 601C600 601 557 601 514.2 601C471.3 601 428.7 601 385.8 601C343 601 300 601 257.2 601C214.3 601 171.7 601 128.8 601C86 601 43 601 21.5 601L0 601Z" fill="#045101" stroke-linecap="round" stroke-linejoin="miter"></path></svg>